<svg width="50" height="53" xmlns="http://www.w3.org/2000/svg">
 <!-- Created with Method Draw - http://github.com/duopixel/Method-Draw/ -->

 <g>
  <title>background</title>
  <rect fill="none" id="canvas_background" height="55" width="52" y="-1" x="-1"/>
  <g display="none" overflow="visible" y="0" x="0" height="100%" width="100%" id="canvasGrid">
   <rect fill="url(#gridpattern)" stroke-width="0" y="1" x="1" height="400" width="580"/>
  </g>
 </g>
 <g>
  <title>Layer 1</title>

  <g stroke="null" id="svg_8">
   <path stroke="null" id="svg_7" fill="#43bdf9" d="m40.593313,22.778962c0,1.801047 -1.037853,3.620479 -2.929703,5.148367l0,6.804204a0.656632,0.656632 0 0 1 -1.313263,0l0,-7.123515a0.657007,0.657007 0 0 1 0.25815,-0.521928c1.722626,-1.313263 2.671553,-2.843778 2.671553,-4.307128c0,-3.731544 -6.139318,-6.545679 -14.280049,-6.545679s-14.280049,2.814135 -14.280049,6.545679c0,1.46335 0.948926,2.993115 2.671553,4.307128a0.657007,0.657007 0 0 1 0.25815,0.521928l0,19.811514l22.700693,0l0,-5.770103a0.656632,0.656632 0 0 1 1.313263,0l0,6.425609a0.656256,0.656256 0 0 1 -0.656632,0.656632l-24.013956,0a0.656256,0.656256 0 0 1 -0.656632,-0.656632l0,-20.14921c-1.891849,-1.527888 -2.929703,-3.346195 -2.929703,-5.148367c0,-4.552521 6.558061,-7.857442 15.593312,-7.857442s15.593312,3.304921 15.593312,7.858942zm-3.586334,13.814404a0.656632,0.656632 0 0 0 -0.656632,0.656632l0,2.007417a0.656632,0.656632 0 1 0 1.313263,0l0,-2.008167a0.656632,0.656632 0 0 0 -0.656632,-0.655881zm-21.762648,9.886996l19.511339,0a0.656256,0.656256 0 0 0 0.656632,-0.656632l0,-19.004795l0.62774,-0.478778c1.484363,-1.132408 2.301963,-2.397268 2.301963,-3.561195c0,-3.092172 -5.985479,-5.607634 -13.342004,-5.607634a29.402463,29.402463 0 0 0 -5.926194,0.568455a0.656632,0.656632 0 0 0 0.26603,1.286248a28.083571,28.083571 0 0 1 5.660165,-0.54144c7.452581,0 12.028741,2.501204 12.028741,4.294371c0,0.72342 -0.667513,1.664467 -1.785288,2.516963l-0.886265,0.675393a0.657757,0.657757 0 0 0 -0.25815,0.521928l0,18.673853l-18.198076,0l0,-18.673477a0.657757,0.657757 0 0 0 -0.25815,-0.521928l-0.886265,-0.675393c-1.117775,-0.852495 -1.785288,-1.793542 -1.785288,-2.516963c0,-0.878761 1.142914,-1.920366 2.982984,-2.71883a0.656632,0.656632 0 0 0 -0.522304,-1.2052c-2.433289,1.055864 -3.773568,2.449048 -3.773568,3.923655c0,1.163176 0.8176,2.428787 2.301963,3.561195l0.627365,0.478778l0,19.004795a0.656256,0.656256 0 0 0 0.656632,0.656632zm15.664604,-25.783109a0.657382,0.657382 0 0 0 -0.513674,-0.7737a24.82968,24.82968 0 0 0 -2.762355,-0.390227a0.656632,0.656632 0 1 0 -0.112565,1.30801a23.635361,23.635361 0 0 1 2.61602,0.36959a0.646876,0.646876 0 0 0 0.130576,0.012757a0.657007,0.657007 0 0 0 0.641998,-0.526431zm-10.191673,17.145214a0.656256,0.656256 0 0 0 0.928665,0l7.636813,-7.636438a0.656632,0.656632 0 1 0 -0.928665,-0.929415l-7.636813,7.637564a0.655881,0.655881 0 0 0 0,0.928289zm8.69868,-5.293952l-5.427154,5.427529a0.656632,0.656632 0 0 0 0.928289,0.928665l5.427154,-5.425653a0.656632,0.656632 0 0 0 -0.928289,-0.928665l0,-0.001876zm-4.333018,-4.333018l-5.427154,5.427529a0.656632,0.656632 0 0 0 0.928289,0.928665l5.427154,-5.427529a0.656632,0.656632 0 0 0 -0.928289,-0.928665zm-7.681089,-15.786174a0.656632,0.656632 0 0 0 1.313263,0a1.482487,1.482487 0 0 1 0.281414,-0.913281a2.751099,2.751099 0 0 0 0.468647,-1.588673a2.751099,2.751099 0 0 0 -0.468647,-1.587923a1.482487,1.482487 0 0 1 -0.281789,-0.913281a1.484363,1.484363 0 0 1 0.281789,-0.913281a2.744345,2.744345 0 0 0 0.469023,-1.587923a0.656632,0.656632 0 0 0 -1.313263,0a1.484363,1.484363 0 0 1 -0.281414,0.91253a2.744345,2.744345 0 0 0 -0.469023,1.587923a2.751099,2.751099 0 0 0 0.469023,1.589424a1.482487,1.482487 0 0 1 0.281789,0.913281a1.482487,1.482487 0 0 1 -0.281789,0.91253a2.751099,2.751099 0 0 0 -0.469023,1.588673zm4.377669,0a0.656632,0.656632 0 0 0 1.313263,0a1.482487,1.482487 0 0 1 0.281789,-0.913281a2.751099,2.751099 0 0 0 0.468647,-1.588673a2.751099,2.751099 0 0 0 -0.468647,-1.587923a1.482487,1.482487 0 0 1 -0.281789,-0.913281a1.484363,1.484363 0 0 1 0.281414,-0.91253a2.744345,2.744345 0 0 0 0.469023,-1.588673a0.656632,0.656632 0 0 0 -1.313263,0a1.484363,1.484363 0 0 1 -0.281414,0.91253a2.744345,2.744345 0 0 0 -0.469023,1.587923a2.751099,2.751099 0 0 0 0.468647,1.589424a1.482487,1.482487 0 0 1 0.281789,0.913281a1.482487,1.482487 0 0 1 -0.281789,0.913281a2.751099,2.751099 0 0 0 -0.468647,1.587923zm4.377294,0a0.656632,0.656632 0 0 0 1.313263,0a1.482487,1.482487 0 0 1 0.281789,-0.913281a2.751099,2.751099 0 0 0 0.468647,-1.588673a2.751099,2.751099 0 0 0 -0.468647,-1.587923a1.482487,1.482487 0 0 1 -0.281789,-0.913281a1.484363,1.484363 0 0 1 0.281414,-0.91253a2.744345,2.744345 0 0 0 0.469023,-1.588673a0.656632,0.656632 0 0 0 -1.313263,0a1.484363,1.484363 0 0 1 -0.281414,0.91253a2.744345,2.744345 0 0 0 -0.469023,1.587923a2.751099,2.751099 0 0 0 0.468647,1.589424a1.482487,1.482487 0 0 1 0.281789,0.913281a1.482487,1.482487 0 0 1 -0.281789,0.913281a2.751099,2.751099 0 0 0 -0.468647,1.587923zm4.377669,0a0.656632,0.656632 0 0 0 1.313263,0a1.482487,1.482487 0 0 1 0.281414,-0.913281a2.751099,2.751099 0 0 0 0.468647,-1.588673a2.751099,2.751099 0 0 0 -0.468647,-1.587923a1.482487,1.482487 0 0 1 -0.281789,-0.913281a1.484363,1.484363 0 0 1 0.281789,-0.913281a2.744345,2.744345 0 0 0 0.469023,-1.587923a0.656632,0.656632 0 0 0 -1.313263,0a1.484363,1.484363 0 0 1 -0.281414,0.91253a2.744345,2.744345 0 0 0 -0.469023,1.587923a2.751099,2.751099 0 0 0 0.469023,1.589424a1.482487,1.482487 0 0 1 0.281789,0.913281a1.482487,1.482487 0 0 1 -0.281789,0.91253a2.751099,2.751099 0 0 0 -0.469023,1.588673z"/>
  </g>
 </g>
</svg>